<svg xmlns="http://www.w3.org/2000/svg" viewBox="0 0 128 128" role="img" aria-labelledby="title desc">
  <title id="title">StudioBuild Icon</title>
  <desc id="desc">SB monogram icon for browser tab.</desc>

  <defs>
    <linearGradient id="bg" x1="0" y1="0" x2="1" y2="1">
      <stop offset="0%" stop-color="#0b0d10" />
      <stop offset="100%" stop-color="#050608" />
    </linearGradient>
    <linearGradient id="accent" x1="0" y1="0" x2="1" y2="1">
      <stop offset="0%" stop-color="#b29978" />
      <stop offset="100%" stop-color="#8f775b" />
    </linearGradient>
  </defs>

  <rect width="128" height="128" rx="24" fill="url(#bg)" />
  <path d="M29 31h56v12H41v14h34c12 0 20 8 20 19 0 13-9 21-23 21H31V85h41c7 0 11-3 11-8 0-5-4-8-11-8H29V31z" fill="#f8f8f5" />
  <path d="M78 31h19c12 0 21 8 21 20 0 9-5 16-14 19l17 27H107L91 72h-13V31zm13 12v17h7c5 0 8-3 8-8 0-5-3-9-8-9h-7z" fill="url(#accent)" />
</svg>
